<svg width="61" height="64" viewBox="0 0 61 64" fill="none" xmlns="http://www.w3.org/2000/svg">
<g clip-path="url(#clip0_26_1704)">
<path d="M3.77762 28.4298C3.87603 28.5183 4.00124 28.5661 4.13075 28.5661C4.20819 28.5661 4.28241 28.5496 4.35342 28.5165L7.81565 26.874L10.637 29.2533C10.7321 29.3342 10.8524 29.378 10.9759 29.378C11.0993 29.378 11.2189 29.3342 11.3145 29.2533L14.1359 26.874L17.598 28.5165C17.6686 28.5496 17.7433 28.5661 17.8208 28.5661C17.9497 28.5661 18.0756 28.5183 18.174 28.4298C18.3322 28.2856 18.398 28.056 18.3418 27.8446L15.2003 16.1841H15.3246V13.1542C15.3246 12.6128 15.2036 12.0891 14.9641 11.5965C14.626 10.9022 14.0724 10.3152 13.3634 9.89947C12.6544 9.48284 11.829 9.26184 10.9759 9.26184C9.83592 9.26284 8.759 9.65322 7.94325 10.362C7.53591 10.7155 7.21435 11.1311 6.98786 11.5965C6.74803 12.0882 6.62686 12.6118 6.62686 13.1542V16.1821H6.75125L3.6101 27.8446C3.55304 28.056 3.61892 28.2857 3.77762 28.4298ZM10.5512 27.725L8.36501 25.882L9.01694 20.6567H10.5512V27.725ZM10.5512 19.7648H9.12774L9.51841 16.6288H10.5512V19.7648ZM11.4004 27.725L11.4007 20.6567H12.9346L13.5865 25.882L11.4004 27.725ZM11.4007 19.7648V16.6288H12.4332L12.8243 19.7648H11.4007ZM15.2814 20.6567L16.9846 26.9792L14.429 25.768L13.7915 20.6567H15.2814ZM15.0415 19.7648H13.6807L13.2899 16.6288H14.1966L15.0415 19.7648ZM7.86342 13.1542C7.86342 12.8193 7.93908 12.4941 8.08848 12.1865C8.31437 11.7221 8.69586 11.3218 9.19172 11.0297C9.71558 10.7231 10.3317 10.5595 10.972 10.5595H10.9794C11.8192 10.5595 12.6354 10.8516 13.2195 11.3608C13.497 11.6013 13.7131 11.8797 13.8626 12.1865C14.0125 12.4941 14.088 12.8193 14.088 13.1542V15.4947H7.86342V13.1542ZM7.75477 16.6288H8.66143L8.27077 19.7648H6.90994L7.75477 16.6288ZM6.66999 20.6567H8.15937L7.52232 25.768L4.96676 26.9792L6.66999 20.6567Z" fill="white"/>
<path d="M16.4925 44.7958L13.5228 45.4755L3.25586 56.2482L7.38944 60.5846L17.6563 49.8128L18.3044 46.6973L25.8226 38.8083L24.011 36.9078L16.4925 44.7958Z" fill="white"/>
<path d="M-0.00100231 58.1926L5.53564 63.9999L7.42287 62.0193L1.88623 56.212L-0.00100231 58.1926Z" fill="white"/>
<path d="M55.4872 15.4071L51.2826 19.8185L46.9834 15.3077L52.707 9.30271C52.6147 9.19846 52.5251 9.09333 52.4286 8.99221C52.2694 8.82471 52.1038 8.66408 51.9353 8.50821L46.2192 14.5056L41.92 9.99483L45.9836 5.73158C45.5222 5.66433 45.0523 5.62346 44.5745 5.60596L41.1554 9.19271L38.6809 6.59608C38.3108 6.73233 37.9442 6.88321 37.5804 7.04583L40.3917 9.99483L35.6141 15.0068L31.8039 11.0093C31.6072 11.2011 31.4118 11.3968 31.2204 11.5983C31.1563 11.6646 31.0945 11.7347 31.0309 11.8028L34.85 15.8092L30.0733 20.8202L27.2022 17.808C27.0501 18.1975 26.9156 18.5907 26.7963 18.986L29.3092 21.6225L26.2373 24.8452C26.2888 25.3066 26.3625 25.7632 26.4606 26.215L30.0735 22.4237L34.3732 26.9345L29.4169 32.1353C29.5668 32.3086 29.7223 32.48 29.8828 32.6483C29.9783 32.7486 30.0767 32.846 30.1747 32.9433L35.1373 27.7366L39.4362 32.2473L35.7048 36.1621C36.036 36.2497 36.3707 36.3257 36.7093 36.3851C36.7992 36.4016 36.8898 36.4133 36.9807 36.427L40.2001 33.0496L42.9033 35.8847C43.28 35.7611 43.6549 35.62 44.028 35.4612L40.9648 32.2475L45.7415 27.2363L49.7498 31.4413C49.8152 31.3761 49.8811 31.3128 49.9451 31.2456C50.1376 31.043 50.3228 30.8386 50.5061 30.6312L46.5056 26.4341L51.2827 21.4221L54.2815 24.5677C54.436 24.1861 54.5779 23.8015 54.7087 23.4121L52.0473 20.6198L55.6432 16.8471C55.6148 16.3592 55.5623 15.8783 55.4872 15.4071ZM41.1554 10.7962L45.455 15.3077L40.678 20.3198L36.3783 15.8092L41.1554 10.7962ZM30.8374 21.6225L35.6141 16.6105L39.9133 21.1221L35.1371 26.1331L30.8374 21.6225ZM40.2 31.446L35.9013 26.9345L40.678 21.9233L44.9767 26.434L40.2 31.446ZM45.7413 25.6317L41.4421 21.1221L46.2192 16.1091L50.5184 20.6197L45.7413 25.6317Z" fill="white"/>
<path d="M60.1578 11.7474C59.3946 9.23453 58.0945 6.90966 56.2539 4.97903C54.4146 3.04929 52.1987 1.68541 49.8033 0.88416C46.2065 -0.31934 42.2158 -0.273465 38.3356 0.895785C34.454 2.06604 30.6704 4.36466 27.4665 7.72453C25.3323 9.96478 23.7111 12.4104 22.6022 14.9457C20.9374 18.7474 20.4289 22.7557 21.0336 26.5265C21.6349 30.2992 23.353 33.8264 26.0575 36.6615C27.8591 38.5513 29.9535 39.9854 32.2149 40.9162C35.6079 42.3142 39.3745 42.5762 43.0817 41.6308C46.7912 40.6874 50.4361 38.5425 53.6376 35.1827C57.9061 30.7013 60.3814 25.14 60.8997 19.6889C61.1571 16.9639 60.9224 14.2622 60.1578 11.7474ZM56.8631 22.7899C55.9138 26.2588 54.0225 29.7102 51.2212 32.6475C49.3538 34.6083 47.3577 36.0523 45.3305 37.0288C42.2886 38.492 39.1795 38.9078 36.2825 38.3975C33.3845 37.8854 30.6911 36.4504 28.4733 34.1274C26.9961 32.5764 25.8973 30.8017 25.1829 28.8924C24.113 26.0272 23.9014 22.8514 24.6414 19.6444C25.3829 16.4403 27.082 13.2002 29.8825 10.2589C33.6156 6.34016 38.2215 4.12341 42.5718 3.67253C44.7459 3.44666 46.8529 3.65803 48.7644 4.29853C50.6784 4.94103 52.3984 6.00428 53.8384 7.51328C55.2781 9.02528 56.2914 10.8303 56.903 12.8378C57.8193 15.8443 57.8138 19.319 56.8631 22.7899Z" fill="white"/>
</g>
<defs>
<clipPath id="clip0_26_1704">
<rect width="61" height="64" fill="white"/>
</clipPath>
</defs>
</svg>
