<svg width="64" height="64" viewBox="0 0 64 64" fill="none" xmlns="http://www.w3.org/2000/svg">
<g clip-path="url(#clip0_26_1719)">
<path d="M37.1782 4.93083C37.9235 5.71808 38.6396 6.55408 39.3227 7.43221C39.7885 7.24371 40.2563 7.06083 40.7297 6.89446C43.0681 6.06733 45.4742 5.56058 47.8403 5.41646C48.479 5.37658 49.1153 5.36546 49.7463 5.37658C49.3748 4.98296 48.9878 4.60483 48.5832 4.25008C46.2082 2.16558 43.2777 0.761831 40.1343 0.236206C39.9746 0.931456 39.7328 1.63558 39.3825 2.30746C39.03 2.98596 38.5665 3.62683 38.0165 4.18671C37.7571 4.45296 37.4732 4.70133 37.1782 4.93083Z" fill="white"/>
<path d="M47.9715 7.37236C45.7983 7.53311 43.583 8.01774 41.4075 8.80049C41.126 8.90249 40.8433 9.00899 40.5605 9.12199C41.6493 10.7042 42.6362 12.4074 43.4922 14.2047C44.1464 13.9441 44.8315 13.7412 45.5412 13.6347C46.7542 13.4441 48.0193 13.5582 49.1469 13.923C50.28 14.2812 51.2735 14.8477 52.165 15.4531C52.9589 16.0009 53.6807 16.5819 54.3714 17.1517C54.3792 15.6937 54.1995 14.2102 53.8115 12.7277C53.2948 10.7574 52.4543 8.96124 51.3644 7.37899C50.2534 7.29474 49.1202 7.28699 47.9715 7.37236Z" fill="white"/>
<path d="M21.7022 23.8388H23.0304C23.4507 23.055 23.9042 22.2611 24.3809 21.4772C25.5849 19.5012 26.9477 17.5255 28.5254 15.6417C30.0922 13.7678 31.8862 11.9628 33.975 10.4072C35.0195 9.63545 36.1095 8.94245 37.2682 8.36358C37.3247 8.32933 37.3812 8.30708 37.4379 8.2727C36.8135 7.4777 36.155 6.71708 35.4742 6.00195C34.3277 6.5917 33.078 7.00095 31.8295 7.2737C30.3305 7.61408 28.8547 7.78483 27.4577 7.95445C26.0617 8.13633 24.7334 8.3182 23.507 8.62408C23.0979 8.7262 22.701 8.84033 22.315 8.9767C21.3837 10.7131 20.7362 12.6212 20.4523 14.6082C20.1352 16.7992 20.2483 19.0811 20.8392 21.364C21.0657 22.2267 21.3495 23.0438 21.7022 23.8388Z" fill="white"/>
<path d="M37.653 1.38496C37.8892 0.953586 38.0676 0.495711 38.2051 0.022211C36.4999 -0.065289 34.7524 0.103211 33.0072 0.559961C32.7987 0.615336 32.5915 0.674211 32.3862 0.735211C33.5295 1.55796 34.6526 2.47596 35.7326 3.49159C36.5497 2.91509 37.2161 2.21871 37.653 1.38496Z" fill="white"/>
<path d="M33.9496 4.47411C32.7688 3.37199 31.5425 2.38849 30.2974 1.52136C28.0454 2.53811 26.0974 4.00386 24.5284 5.78911C24.3255 6.01974 24.1326 6.25699 23.9419 6.49761C26.4045 5.95549 28.9536 5.82336 31.384 5.27911C32.2799 5.08386 33.147 4.81661 33.9496 4.47411Z" fill="white"/>
<path d="M41.6624 15.1305C40.7875 13.2798 39.7885 11.5535 38.6764 9.95245C38.5056 10.0211 38.347 10.101 38.1874 10.1797C37.1541 10.7018 36.155 11.3383 35.1904 12.0535C33.271 13.4727 31.5801 15.1648 30.07 16.9466C28.5598 18.7295 27.2315 20.6145 26.0508 22.5105C25.7779 22.953 25.5053 23.3965 25.2446 23.8387H35.5651C35.6216 23.5892 35.7016 23.3508 35.7803 23.1002C36.1218 22.0225 36.5531 20.9437 37.1208 19.9103C37.6995 18.877 38.4035 17.8891 39.2663 17.0263C39.9926 16.288 40.7986 15.6527 41.6624 15.1305Z" fill="white"/>
<path d="M42.5015 17.0154C41.8552 17.4234 41.2642 17.9124 40.7198 18.4568C39.2773 19.9104 38.3348 21.7721 37.6994 23.7257C37.6884 23.7589 37.6762 23.8044 37.665 23.8388H44.6593C44.137 21.5681 43.4329 19.2739 42.5015 17.0154Z" fill="white"/>
<path d="M52.9363 23.8388C53.5606 22.4651 53.9808 20.9893 54.1971 19.4792C54.1971 19.4792 54.1971 19.4792 54.1971 19.4681C53.1526 18.6498 52.1413 17.7983 51.0626 17.0831C50.2686 16.5498 49.4282 16.0952 48.5533 15.8346C47.6796 15.5618 46.7716 15.4821 45.8512 15.6296C45.3401 15.7203 44.83 15.8678 44.3188 16.062C45.3977 18.6498 46.1695 21.261 46.7138 23.839H52.9363V23.8388Z" fill="white"/>
<path d="M53.4454 25.6528H10.5533C9.50881 25.6528 8.66406 26.4977 8.66406 27.5433C8.66406 28.5878 9.50894 29.4338 10.5533 29.4338H53.4454C54.4887 29.4338 55.3358 28.5877 55.3358 27.5433C55.3358 26.4977 54.4887 25.6528 53.4454 25.6528Z" fill="white"/>
<path d="M48.6076 31.3575C46.3369 32.6692 43.0361 34.6561 39.4414 37.2882C39.04 36.9057 38.6407 36.5321 38.2506 36.1795C35.9377 34.0972 33.862 32.5282 32.221 31.598L31.7764 31.3341L31.3207 31.598C29.6796 32.5284 27.604 34.0972 25.2911 36.1795C24.8986 36.5342 24.4972 36.898 24.0959 37.2816C20.5079 34.6549 17.2126 32.6735 14.9451 31.3619C14.8554 31.1369 14.7732 30.935 14.6956 30.7476H11.0322C11.3437 31.4295 13.7321 36.9469 15.7557 44.991C15.881 45.4777 16.0064 45.9745 16.1305 46.4712C16.2102 46.8205 16.2901 47.1699 16.37 47.529C16.4597 47.9092 16.5396 48.2996 16.6306 48.691C17.6185 53.3014 18.4014 58.5237 18.6175 63.9999L22.0237 63.8835C22.0005 63.196 21.956 62.5307 21.9095 61.8632C21.8984 61.8532 21.8984 61.8532 21.9095 61.8532C21.8962 61.6392 21.8719 61.4362 21.8562 61.2235C22.8309 58.4881 24.1459 55.9146 25.7092 53.524C25.7104 53.5251 25.7125 53.5274 25.7149 53.5285C27.4845 55.2792 29.1797 57.1686 30.722 59.2242C29.7075 60.6457 28.7739 62.1404 27.9291 63.696H29.8994C30.4871 62.6704 31.1036 61.6647 31.7765 60.7001C32.4495 61.6647 33.0661 62.6704 33.6536 63.696H35.6184C34.7756 62.1404 33.8444 60.6457 32.8299 59.2242C34.3721 57.1686 36.0674 55.2792 37.827 53.5285C37.8292 53.5252 37.8315 53.524 37.8337 53.5219C39.396 55.909 40.71 58.4804 41.6845 61.2124C41.6701 61.422 41.6457 61.6216 41.6324 61.8321C41.5859 62.5085 41.5414 63.196 41.5181 63.8835L44.9244 64C45.1516 58.5237 45.9345 53.3212 46.9114 48.7132V48.7022C47.0024 48.2997 47.0932 47.9094 47.1719 47.5291C47.2516 47.1699 47.3426 46.8206 47.4225 46.4714C47.5355 45.9636 47.6609 45.4779 47.785 44.9911C48.1831 43.3746 48.6032 41.8611 49.0236 40.4772C49.9317 37.4426 50.8165 34.98 51.4751 33.2769C51.8045 32.4209 52.0772 31.7656 52.2591 31.321C52.3611 31.0992 52.4299 30.9306 52.4741 30.8254L52.5096 30.7477H48.8529C48.7774 30.935 48.6965 31.1335 48.6076 31.3575ZM26.4964 37.3439C28.5276 35.5134 30.365 34.1162 31.7764 33.247C33.1879 34.1162 35.0241 35.5134 37.0454 37.3439C37.3812 37.6455 37.7271 37.9681 38.0842 38.3019C36.9067 39.2011 35.7081 40.1646 34.5117 41.1969C33.5936 41.9907 32.6779 42.829 31.773 43.7016C30.8682 42.829 29.9524 41.9907 29.032 41.1969C27.8345 40.1624 26.6327 39.1966 25.453 38.2952C25.8124 37.9614 26.1605 37.6465 26.4964 37.3439ZM16.4144 35.3281V35.3181C16.2269 34.7881 16.0484 34.2959 15.8799 33.8291C17.8691 35.0244 20.2962 36.5689 22.8885 38.4571C21.7375 39.5904 20.5645 40.8256 19.3804 42.1582C19.1641 42.4065 18.9467 42.6727 18.7284 42.9255C17.95 39.9872 17.135 37.4125 16.4144 35.3281ZM21.5191 57.5525C21.2442 55.172 20.896 52.8757 20.4902 50.6902C20.3505 49.9519 20.2052 49.2322 20.0534 48.5204C20.3616 48.7665 20.6699 49.0039 20.9781 49.26C21.456 49.6546 21.9449 50.0595 22.4227 50.4741C23.1047 51.0685 23.7877 51.6849 24.4707 52.3191C23.3641 53.9744 22.3796 55.7251 21.5191 57.5525ZM25.431 50.9386C24.8234 50.3709 24.2146 49.8154 23.5949 49.2897C22.5526 48.3795 21.4992 47.5312 20.467 46.7319C20.1399 46.4724 19.8161 46.2407 19.4912 45.999C19.4402 45.785 19.3949 45.5621 19.3437 45.3515C19.3084 45.2019 19.2706 45.0644 19.2351 44.918C19.2506 44.898 19.2672 44.878 19.2829 44.8592C19.4791 44.6175 19.6854 44.3836 19.8805 44.1519C21.3585 42.4421 22.8232 40.8642 24.2469 39.4684C25.4355 40.3731 26.6451 41.3411 27.8504 42.3832C28.7684 43.175 29.6821 44.011 30.5814 44.8802C28.7572 46.7374 27.0087 48.7576 25.431 50.9386ZM31.7764 57.8075C30.1897 55.764 28.4622 53.8625 26.6815 52.1229C26.6782 52.1195 26.675 52.1174 26.6726 52.115C28.2216 49.9407 29.9546 47.9227 31.773 46.0644C33.5892 47.9216 35.3222 49.9384 36.8701 52.1129C35.0884 53.8625 33.362 55.754 31.7764 57.8075ZM43.0516 50.7001C42.6459 52.8834 42.2987 55.1774 42.0237 57.5469C41.1645 55.723 40.182 53.9755 39.0777 52.3234C39.7618 51.6859 40.446 51.0705 41.1301 50.474C41.608 50.0594 42.0858 49.6545 42.5637 49.2699C42.872 49.0149 43.1802 48.7754 43.4874 48.5302C43.3389 49.2422 43.1902 49.9562 43.0516 50.7001ZM44.1981 45.3615C44.147 45.5666 44.1027 45.7884 44.0516 45.9979C43.7256 46.2407 43.4019 46.4781 43.0737 46.7319C42.0425 47.5401 40.9892 48.3895 39.9459 49.2897C39.3261 49.8165 38.7185 50.372 38.1099 50.9286C38.1087 50.9286 38.1087 50.9297 38.1087 50.9297C36.532 48.752 34.7857 46.7351 32.964 44.8802C33.8644 44.0109 34.7757 43.1749 35.6939 42.3832C36.9002 41.3421 38.1089 40.3741 39.2964 39.4694C40.7077 40.8664 42.1847 42.4431 43.6616 44.1616C43.8789 44.4112 44.0919 44.6717 44.307 44.9289C44.2712 45.0752 44.2336 45.214 44.1981 45.3615ZM47.1265 35.3181V35.3281C46.4079 37.4204 45.594 39.9894 44.8169 42.9332C44.5995 42.6826 44.3844 42.4232 44.1605 42.1782C42.9885 40.8454 41.8054 39.6014 40.6545 38.4594C43.2467 36.57 45.674 35.0265 47.6641 33.8291C47.4922 34.2957 47.3139 34.7892 47.1265 35.3181Z" fill="white"/>
</g>
<defs>
<clipPath id="clip0_26_1719">
<rect width="64" height="64" fill="white"/>
</clipPath>
</defs>
</svg>
