<svg width="59" height="59" viewBox="0 0 59 59" fill="none" xmlns="http://www.w3.org/2000/svg">
<path fill-rule="evenodd" clip-rule="evenodd" d="M6.8389 27.5941L7.81269 26.9502C9.27375 25.9846 10.2388 25.3432 10.9227 24.7699C11.5702 24.2269 11.8159 23.8638 11.9448 23.5239C12.0737 23.1838 12.1305 22.7485 12.0058 21.9117C11.8741 21.0281 11.5769 19.907 11.1238 18.214L10.7126 16.6775C8.5554 19.8352 7.17276 23.5654 6.8389 27.5941ZM13.5985 13.2364C13.6214 13.2962 13.6414 13.3578 13.6583 13.4211L14.7124 17.3594C15.1321 18.9272 15.4867 20.252 15.653 21.3681C15.7384 21.9407 15.7817 22.5009 15.755 23.0558L21.9005 25.6456C22.0384 25.5062 22.1871 25.3749 22.346 25.2535L26.8608 21.8006C27.103 21.6152 27.3604 21.459 27.6278 21.332V14.671C27.1155 14.4944 26.6226 14.2544 26.1334 13.973C25.156 13.4105 24.0533 12.5965 22.7485 11.6333L19.3608 9.13258C17.2277 10.1962 15.2852 11.5858 13.5985 13.2364ZM23.4506 7.5682L24.856 8.60569C26.2654 9.64591 27.1993 10.3318 27.9727 10.7768C28.7051 11.1982 29.1296 11.3036 29.4915 11.3075C29.8533 11.3114 30.2801 11.2153 31.0213 10.8098C31.804 10.3816 32.7525 9.71609 34.1839 8.7066L35.7111 7.62946C33.7284 7.06345 31.6354 6.76044 29.4716 6.76044C27.3871 6.76044 25.3681 7.04162 23.4506 7.5682ZM39.7877 9.23645C39.7167 9.30636 39.6392 9.37146 39.5552 9.43075L36.2256 11.779C34.9003 12.7138 33.7803 13.5038 32.7908 14.045C32.3063 14.31 31.8193 14.5352 31.3153 14.6997V21.332C31.5825 21.459 31.8399 21.6152 32.0821 21.8006L36.597 25.2535C36.7586 25.3771 36.9097 25.5109 37.0496 25.653L43.3449 23.0461C43.3191 22.4944 43.3626 21.9376 43.4474 21.3683C43.6136 20.2523 43.9684 18.9275 44.388 17.3596L45.4421 13.4213C45.4483 13.3981 45.4549 13.375 45.462 13.3522C43.8022 11.7043 41.8896 10.3113 39.7877 9.23645ZM48.3432 16.8444L47.9767 18.2143C47.5234 19.9073 47.2264 21.0284 47.0946 21.912C46.97 22.7487 47.0268 23.184 47.1556 23.5241C47.2844 23.864 47.5302 24.2271 48.1778 24.7699C48.8617 25.3435 49.8266 25.9848 51.2878 26.9505L52.0946 27.4839C51.7512 23.5681 50.4163 19.9373 48.3432 16.8444ZM55.8519 30.4883C55.864 30.1603 55.8701 29.8309 55.8701 29.5C55.8701 14.9068 44.0532 3.07294 29.4716 3.07294C14.8898 3.07294 3.07275 14.9068 3.07275 29.5C3.07275 44.0932 14.8898 55.9271 29.4716 55.9271C43.2999 55.9271 54.642 45.2842 55.7767 31.7381C55.951 31.3352 55.9707 30.8927 55.8519 30.4883ZM52.0597 31.8812L49.169 29.9703C47.8161 29.0762 46.6725 28.3203 45.8084 27.5955C45.3935 27.2479 45.0134 26.8839 44.6815 26.4839L38.2596 29.1431C38.2301 29.4105 38.1753 29.6775 38.0939 29.941L36.3207 35.6862C36.259 35.8863 36.1836 36.0795 36.0955 36.2646L39.7046 40.4391C40.2565 40.2547 40.834 40.1448 41.4363 40.0758C42.5565 39.9479 43.9268 39.9479 45.5478 39.9479H49.6206C49.6301 39.9479 49.6395 39.9479 49.6488 39.9482C50.9222 37.4876 51.7601 34.7645 52.0597 31.8812ZM47.2628 43.6354H45.6501C43.8993 43.6354 42.7412 43.6381 41.8549 43.7394C41.0161 43.8353 40.6118 44.0027 40.318 44.2149C40.0237 44.427 39.7371 44.7586 39.3806 45.5256C39.0042 46.3357 38.6353 47.435 38.0816 49.0979L37.5256 50.7683C41.3834 49.3029 44.7393 46.815 47.2628 43.6354ZM33.2535 51.9257L34.6151 47.836C35.1279 46.2961 35.5611 44.9949 36.0365 43.9717C36.2504 43.5113 36.4862 43.0764 36.7622 42.674L33.236 38.5954C32.9064 38.6762 32.5634 38.7188 32.2129 38.7188H26.73C26.4048 38.7188 26.0862 38.6821 25.7787 38.6123L22.6407 42.6086C22.9363 43.0292 23.1861 43.4862 23.4117 43.9717C23.8871 44.9949 24.3203 46.2961 24.8329 47.836L26.2221 52.0085C27.2834 52.1609 28.3683 52.2396 29.4716 52.2396C30.76 52.2396 32.0236 52.1322 33.2535 51.9257ZM21.9924 50.9777L21.3665 49.0979C20.8129 47.435 20.4439 46.3357 20.0676 45.5256C19.7111 44.7586 19.4243 44.427 19.1302 44.2149C18.8363 44.0027 18.432 43.8353 17.5931 43.7394C16.7069 43.6381 15.5488 43.6354 13.7979 43.6354H11.6802C14.3282 46.9721 17.8928 49.5467 21.9924 50.9777ZM9.32938 40.016C9.48782 39.9718 9.65489 39.9479 9.82749 39.9479H13.9003C15.5214 39.9479 16.8916 39.9479 18.0118 40.0758C18.5889 40.1419 19.1429 40.2454 19.6737 40.4162L22.8804 36.3325C22.7782 36.1267 22.6916 35.9109 22.6222 35.6862L20.8489 29.941C20.7666 29.6746 20.7114 29.4044 20.6822 29.1337L14.4123 26.4915C14.0819 26.8883 13.7041 27.2499 13.292 27.5953C12.4278 28.32 11.2843 29.076 9.93143 29.9701L6.89357 31.9783C7.20462 34.8523 8.05049 37.5653 9.32938 40.016ZM29.4716 24.604C29.34 24.604 29.2107 24.6455 29.1009 24.7296L24.5861 28.1826C24.4825 28.2618 24.4096 28.3689 24.3724 28.4896C24.3364 28.6062 24.3349 28.732 24.3724 28.8535L26.1457 34.5986C26.1835 34.7218 26.2566 34.8248 26.3524 34.9002C26.4586 34.9841 26.5897 35.0313 26.73 35.0313H32.2129C32.3532 35.0313 32.4843 34.9841 32.5905 34.9002C32.6863 34.8248 32.7593 34.7218 32.7972 34.5986L34.5704 28.8535C34.608 28.732 34.6065 28.6062 34.5706 28.4896C34.5333 28.3689 34.4605 28.2618 34.3568 28.1826L29.842 24.7296C29.7322 24.6455 29.6028 24.604 29.4716 24.604Z" fill="white"/>
</svg>
