<svg width="52" height="57" viewBox="0 0 52 57" fill="none" xmlns="http://www.w3.org/2000/svg">
<path d="M33.7333 25.6839C33.8209 25.0938 33.8675 24.4889 33.8723 23.8711L32.5118 22.4679L33.658 21.2859C33.5678 20.7534 33.4512 20.2216 33.3055 19.6921L31.5633 21.4896L28.0096 17.8248L31.0531 14.6872C30.8053 14.2991 30.5419 13.9179 30.2654 13.5429L27.0606 16.8466L23.2793 12.9474L26.5386 9.5869C26.1875 9.28865 25.8332 8.99975 25.4741 8.72767L22.3307 11.9691L18.7015 8.22658L20.8093 6.05335C20.3346 5.86276 19.8614 5.69988 19.3901 5.56006L17.7527 7.24823L15.558 4.98505C14.9611 4.98972 14.376 5.0396 13.806 5.13489L16.8037 8.22647L12.8183 12.3363L8.44603 7.82847C8.29812 7.96685 8.15097 8.10813 8.00598 8.25731C7.83012 8.43944 7.66267 8.62469 7.50181 8.81139L11.8695 13.3154L7.8841 17.4252L4.95613 14.4051C4.87009 15.0022 4.82528 15.6107 4.83165 16.2341L6.93503 18.4027L5.38797 19.9981C5.52356 20.4853 5.68313 20.9741 5.86634 21.462L7.8841 19.3818L11.5129 23.1243L8.46276 26.2687C8.72726 26.6407 9.00299 27.0079 9.29297 27.37L12.462 24.1024L16.2433 28.0017L13.129 31.2131C13.4935 31.4982 13.8633 31.7694 14.2398 32.0246L17.192 28.98L20.7456 32.644L19.0935 34.3478C19.6096 34.4992 20.1249 34.6207 20.6368 34.7136L21.6943 33.6232L22.9648 34.9334C23.5692 34.9365 24.1635 34.8957 24.7455 34.812L22.6432 32.6441L26.6288 28.5344L30.2632 32.2829C30.4487 32.1177 30.6306 31.9479 30.8054 31.7681C30.9484 31.6198 31.0867 31.4684 31.2205 31.3131L27.5774 27.5569L31.5633 23.4463L33.7333 25.6839ZM26.1119 17.8247L22.1264 21.9353L18.3448 18.0354L22.3306 13.9262L26.1119 17.8247ZM17.7527 9.2056L21.3816 12.9473L17.3961 17.0571L13.7669 13.3154L17.7527 9.2056ZM8.83284 18.4026L12.8183 14.2927L16.4475 18.0352L12.4621 22.145L8.83284 18.4026ZM13.4106 23.1234L17.3961 19.0143L21.1774 22.9135L17.1923 27.0233L13.4106 23.1234ZM21.6946 31.6665L18.141 28.0017L22.1264 23.8919L25.68 27.5567L21.6946 31.6665ZM26.6288 26.5777L23.0751 22.9136L27.0606 18.8039L30.6142 22.468L26.6288 26.5777Z" fill="white"/>
<path d="M51.3703 48.3147C51.1564 48.0941 50.2413 47.1713 49.1856 46.1053C47.7153 44.6213 46.773 43.6862 46.2309 43.1275C46.1284 43.0214 46.0271 42.9154 45.9275 42.8094C44.1032 40.872 42.4787 38.2892 41.2323 35.3414C39.8611 32.1029 38.9985 28.5941 38.6687 24.9108L38.6672 24.89L38.6682 24.8685C38.7979 22.6983 38.5524 20.4805 37.9394 18.2772C36.8783 14.4656 34.7484 10.833 31.7805 7.77222C29.7621 5.69039 27.5604 3.97984 25.2367 2.68565C23.4877 1.71275 21.694 0.992797 19.9046 0.544702C17.0939 -0.157778 14.3687 -0.180711 11.8029 0.475456C9.12589 1.15723 6.6358 2.62576 4.60239 4.72217L4.58155 4.74377C2.74527 6.63723 1.44047 8.83507 0.702354 11.2765C0.172813 13.0226 -0.0589758 14.8759 0.0127093 16.7864C0.116566 19.5453 0.837196 22.3517 2.15484 25.1282C3.44819 27.854 5.25867 30.4269 7.53467 32.7745C11.4855 36.8474 16.3826 39.3534 21.3254 39.8322C22.2677 39.9228 23.2276 39.9368 24.1781 39.8722H24.2087C27.934 40.0581 31.396 40.9004 34.4994 42.3797C37.0727 43.607 39.432 45.2837 41.5116 47.3632C41.6151 47.467 41.7187 47.5723 41.8219 47.6791C42.3641 48.2377 43.2711 49.2092 44.7104 50.7253C45.7429 51.8143 46.6388 52.758 46.853 52.9785C47.2775 53.4165 48.4195 54.2749 49.8499 52.7994L51.0098 51.6037L51.0072 51.6015L51.1973 51.4054C52.6279 49.93 51.7951 48.7527 51.3703 48.3147ZM18.6845 35.6671C15.5553 34.7419 12.5533 32.8622 10.002 30.2302C8.2227 28.3966 6.76654 26.4071 5.67259 24.3168C4.87121 22.786 4.28056 21.226 3.9176 19.6806C3.37025 17.3513 3.34606 15.1166 3.84527 13.0395C4.36812 10.8808 5.44901 8.94284 7.05685 7.2806L7.05728 7.27982C8.49368 5.80127 10.1482 4.75156 11.9743 4.16052C13.2855 3.7387 14.6875 3.55356 16.1415 3.61112C18.3269 3.69729 20.5778 4.31805 22.8322 5.45549C25.1289 6.6143 27.3095 8.24893 29.3138 10.3168C32.6933 13.8003 34.7661 18.0662 35.1507 22.3281C35.3333 24.3415 35.1349 26.2633 34.5623 28.0417C33.9814 29.8392 33.0364 31.423 31.7535 32.7471C30.4695 34.0697 28.9344 35.0433 27.1901 35.6435C24.5885 36.5355 21.6475 36.5439 18.6845 35.6671ZM39.7649 41.307C38.5532 40.477 37.274 39.7386 35.9635 39.1137C34.7466 38.5328 33.4607 38.0309 32.1421 37.6221L31.6044 37.4554L32.0683 37.1281C32.8445 36.5817 33.5677 35.9646 34.2235 35.2883C34.9367 34.5528 35.5892 33.7214 36.1629 32.8169L36.477 32.3227L36.6448 32.8884C37.0412 34.2301 37.5092 35.5395 38.0346 36.7807C38.6546 38.2431 39.3637 39.6394 40.1418 40.9305L39.7649 41.307Z" fill="white"/>
<path d="M9.96226 43.1506C6.25331 43.1514 3.24783 46.2498 3.24707 50.0753C3.24783 53.9001 6.25288 56.9992 9.96226 57C13.6716 56.9992 16.6768 53.9 16.6774 50.0753C16.6767 46.2498 13.6712 43.1514 9.96226 43.1506ZM12.768 52.9686C12.0456 53.7117 11.0621 54.1666 9.96215 54.1674C8.86226 54.1666 7.87896 53.7117 7.1565 52.9686C6.43619 52.2231 5.99464 51.2095 5.99388 50.0752C5.99464 48.941 6.43619 47.9265 7.1565 47.1811C7.87896 46.4388 8.86226 45.9838 9.96215 45.983C11.0621 45.9838 12.0454 46.4386 12.768 47.1811C13.4882 47.9264 13.9299 48.9409 13.9305 50.0752C13.9299 51.2096 13.4882 52.2231 12.768 52.9686Z" fill="white"/>
</svg>