<svg width="59" height="59" viewBox="0 0 59 59" fill="none" xmlns="http://www.w3.org/2000/svg">
<path fill-rule="evenodd" clip-rule="evenodd" d="M3 29.5C3 14.985 14.1929 3.2182 28 3.2182C41.8072 3.2182 53 14.985 53 29.5C53 44.0152 41.8072 55.7818 28 55.7818C22.0686 55.7818 16.6196 53.6103 12.3332 49.9822L12.3269 49.9769C6.63909 45.1593 3 37.7765 3 29.5ZM18.7953 49.9456C21.5858 51.3364 24.7065 52.1146 28 52.1146C35.7093 52.1146 42.4712 47.8513 46.2693 41.4452C45.1344 39.6705 43.7844 38.095 42.2688 36.747C36.2086 43.5969 27.6898 48.5004 18.7953 49.9456ZM39.4067 34.5928C32.8828 41.783 23.3991 46.5103 14.0459 46.7118C12.5957 45.4112 11.3118 43.9115 10.2326 42.2529C17.3542 41.665 23.9528 37.9569 28.376 31.9783L28.8458 31.3432C32.6226 31.4586 36.2502 32.6023 39.4067 34.5928ZM29.0009 27.6794C36.4677 27.9236 43.4284 31.6326 48.0302 37.7638C48.9865 35.204 49.5116 32.4164 49.5116 29.5C49.5116 29.3511 49.5102 29.2027 49.5074 29.0546L48.2612 27.7226L48.256 27.7173C42.4649 21.632 34.6805 18.1249 26.5165 17.8988C26.5537 21.2888 27.39 24.6556 29.0009 27.6794ZM26.7893 14.2383C34.8337 14.5043 42.5358 17.6416 48.6388 23.1027C46.1174 14.0988 38.41 7.43006 29.1502 6.91721L28.0151 9.78088C27.4414 11.2286 27.0335 12.7241 26.7893 14.2383ZM25.3146 7.05994C23.0477 7.35669 20.8904 8.02425 18.8992 9.00301C15.6561 17.6348 15.685 27.1048 18.9861 35.7216C21.5256 34.2288 23.7902 32.2035 25.6226 29.7269L25.8965 29.3565C22.5139 22.9257 22.0895 15.1969 24.7951 8.37039L25.3146 7.05994ZM15.8128 37.254C12.6805 29.1783 12.1643 20.4018 14.2641 12.0952C9.51342 16.2433 6.48837 22.5003 6.48837 29.5C6.48837 32.7636 7.14595 35.8656 8.32944 38.6679C10.9145 38.6559 13.4432 38.1672 15.8128 37.254Z" fill="white"/>
</svg>
